<?xml version="1.0" standalone="no"?><!-- Generator: Gravit.io --><svg xmlns="http://www.w3.org/2000/svg" xmlns:xlink="http://www.w3.org/1999/xlink" style="isolation:isolate" viewBox="0 0 1200 768" width="1200" height="768"><defs><clipPath id="_clipPath_ybIIgAxXfKYYcnOrmFFaUrQJKgkNp9x0"><rect width="1200" height="768"/></clipPath></defs><g clip-path="url(#_clipPath_ybIIgAxXfKYYcnOrmFFaUrQJKgkNp9x0)"><rect width="1200" height="768" style="fill:rgb(15,54,101)"/><g><path d=" M 354.122 425.623 C 354.122 426.742 353.207 427.656 352.19 427.656 L 340.196 427.656 C 339.18 427.656 338.265 426.742 338.265 425.623 L 338.265 391.878 L 310.414 391.878 L 310.414 425.623 C 310.414 426.742 309.601 427.656 308.483 427.656 L 296.591 427.656 C 295.473 427.656 294.558 426.742 294.558 425.623 L 294.558 342.681 C 294.558 341.36 295.473 340.242 296.591 340.242 L 308.483 340.242 C 309.601 340.242 310.414 341.36 310.414 342.681 L 310.414 376.021 L 338.265 376.021 L 338.265 342.681 C 338.265 341.36 339.18 340.242 340.196 340.242 L 352.19 340.242 C 353.207 340.242 354.122 341.36 354.122 342.681 L 354.122 425.623 Z  M 371.401 340.445 L 404.639 373.683 L 437.877 340.445 L 437.877 425.725 C 437.877 426.843 437.064 427.758 435.945 427.758 L 424.256 427.758 C 423.138 427.758 422.223 426.843 422.223 425.725 L 422.223 378.155 L 404.639 395.74 L 387.054 378.155 L 387.054 425.725 C 387.054 426.843 386.241 427.758 385.123 427.758 L 373.332 427.758 C 372.316 427.758 371.401 426.843 371.401 425.725 L 371.401 340.445 Z  M 512.179 424.505 L 496.018 395.842 L 493.781 391.979 L 493.273 391.064 C 508.012 387.812 515.635 376.936 515.635 366.263 C 515.635 359.249 512.382 352.541 506.792 347.865 C 501.1 342.986 493.07 340.445 483.82 340.445 L 454.14 340.445 C 453.022 340.445 452.107 341.36 452.107 342.376 L 452.107 350.406 L 453.123 352.236 L 453.123 352.338 L 466.642 376.123 L 452.107 376.123 L 452.107 425.725 C 452.107 426.843 453.022 427.758 454.14 427.758 L 466.032 427.758 C 467.049 427.758 467.963 426.843 467.963 425.725 L 467.963 391.979 L 475.587 391.979 L 477.722 395.842 L 495.103 426.538 L 495.306 426.843 C 495.611 427.351 496.221 427.758 496.932 427.758 L 510.553 427.758 C 511.671 427.758 512.484 426.843 512.484 425.623 C 512.484 425.319 512.484 425.014 512.281 424.709 L 512.179 424.505 Z  M 482.702 372.362 L 473.656 356.302 L 483.82 356.302 C 494.798 356.302 499.677 361.486 499.677 366.263 C 499.677 370.329 496.018 374.801 487.784 375.919 C 486.87 376.021 485.853 376.123 484.837 376.123 L 482.702 372.362 Z " fill-rule="evenodd" fill="rgb(255,255,255)"/><g><path d=" M 625.129 423.998 C 627.772 422.778 630.313 421.355 632.752 419.627 L 632.752 419.525 L 632.854 419.525 C 632.854 419.424 632.854 419.424 632.956 419.424 C 633.769 418.712 633.87 417.391 633.057 416.578 L 625.434 407.531 C 624.824 406.718 623.604 406.515 622.791 407.023 C 622.791 407.125 622.689 407.125 622.689 407.125 C 611.102 414.951 595.144 412.919 585.894 402.042 C 575.933 390.252 577.356 372.667 589.045 362.706 C 598.295 354.879 611.305 354.066 621.165 359.86 C 621.978 360.267 622.791 360.165 623.401 359.657 L 632.956 351.627 C 633.769 350.915 633.87 349.594 633.057 348.679 L 632.854 348.476 L 632.549 348.273 C 616.591 336.888 594.331 337.295 578.779 350.509 C 560.279 366.162 558.043 393.911 573.697 412.309 C 586.606 427.555 607.748 431.723 625.129 423.998 Z  M 687.539 427.86 C 663.449 427.86 643.831 408.243 643.831 384.153 C 643.831 360.063 663.449 340.446 687.539 340.446 C 711.629 340.446 731.246 360.063 731.246 384.153 C 731.246 408.243 711.629 427.86 687.539 427.86 Z  M 687.539 356.302 C 672.19 356.302 659.688 368.805 659.688 384.153 C 659.688 399.501 672.19 411.902 687.539 411.902 C 702.887 411.902 715.288 399.501 715.288 384.153 C 715.288 368.805 702.887 356.302 687.539 356.302 Z  M 765.195 427.759 C 775.055 427.86 784.914 424.608 793.046 417.899 C 811.545 402.652 814.29 375.107 798.941 356.506 C 790.403 346.036 777.799 340.548 765.195 340.548 L 743.443 340.548 C 742.325 340.548 741.41 341.462 741.41 342.479 L 741.41 425.319 C 741.41 426.742 742.325 427.759 743.443 427.759 L 765.195 427.759 Z  M 786.744 366.569 C 796.502 378.359 794.774 395.944 782.882 405.6 C 777.799 409.869 771.497 412.004 765.195 411.902 L 757.267 411.902 L 757.267 356.404 L 765.195 356.404 C 773.225 356.404 781.255 359.86 786.744 366.569 Z  M 879.647 425.827 C 879.647 426.946 878.733 427.86 877.716 427.86 L 822.116 427.86 C 820.998 427.86 820.083 426.946 820.083 425.827 L 820.083 342.479 C 820.083 341.361 820.998 340.446 822.116 340.446 L 875.683 340.446 C 876.801 340.446 877.716 341.361 877.716 342.479 L 877.716 354.371 C 877.716 355.489 876.801 356.302 875.683 356.302 L 835.94 356.302 L 835.94 376.225 L 873.65 376.225 C 874.768 376.225 875.683 377.038 875.683 378.156 L 875.683 390.048 C 875.683 391.167 874.768 392.081 873.65 392.081 L 835.94 392.081 L 835.94 411.902 L 877.716 411.902 C 878.733 411.902 879.647 412.817 879.647 413.935 L 879.647 425.827 Z " fill-rule="evenodd" fill="rgb(0,204,255)"/><path d=" M 537.488 306.75 L 905.442 306.75 L 905.442 461.25 L 537.488 461.25 L 537.488 306.75 Z  M 549.686 318.947 L 893.245 318.947 L 893.245 449.053 L 549.686 449.053 L 549.686 318.947 Z " fill-rule="evenodd" fill="rgb(0,204,255)"/></g></g></g></svg>