<?xml version="1.0" standalone="no"?><!-- Generator: Gravit.io --><svg xmlns="http://www.w3.org/2000/svg" xmlns:xlink="http://www.w3.org/1999/xlink" style="isolation:isolate" viewBox="0 0 560 315" width="560" height="315"><defs><clipPath id="_clipPath_XPXIl7FOab9ZB0ULopSJOyzLl6L7ktmB"><rect width="560" height="315"/></clipPath></defs><g clip-path="url(#_clipPath_XPXIl7FOab9ZB0ULopSJOyzLl6L7ktmB)"><g><path d=" M 105.541 187.033 C 105.541 187.827 104.892 188.476 104.171 188.476 L 95.661 188.476 C 94.94 188.476 94.291 187.827 94.291 187.033 L 94.291 163.089 L 74.53 163.089 L 74.53 187.033 C 74.53 187.827 73.953 188.476 73.159 188.476 L 64.721 188.476 C 63.928 188.476 63.279 187.827 63.279 187.033 L 63.279 128.183 C 63.279 127.246 63.928 126.452 64.721 126.452 L 73.159 126.452 C 73.953 126.452 74.53 127.246 74.53 128.183 L 74.53 151.839 L 94.291 151.839 L 94.291 128.183 C 94.291 127.246 94.94 126.452 95.661 126.452 L 104.171 126.452 C 104.892 126.452 105.541 127.246 105.541 128.183 L 105.541 187.033 Z  M 117.802 126.597 L 141.385 150.18 L 164.968 126.597 L 164.968 187.105 C 164.968 187.899 164.391 188.548 163.598 188.548 L 155.304 188.548 C 154.511 188.548 153.862 187.899 153.862 187.105 L 153.862 153.353 L 141.385 165.83 L 128.908 153.353 L 128.908 187.105 C 128.908 187.899 128.331 188.548 127.538 188.548 L 119.172 188.548 C 118.451 188.548 117.802 187.899 117.802 187.105 L 117.802 126.597 Z  M 217.688 186.24 L 206.221 165.902 L 204.634 163.161 L 204.274 162.512 C 214.731 160.204 220.14 152.488 220.14 144.915 C 220.14 139.939 217.833 135.179 213.866 131.861 C 209.827 128.4 204.13 126.597 197.567 126.597 L 176.508 126.597 C 175.714 126.597 175.065 127.246 175.065 127.967 L 175.065 133.664 L 175.786 134.962 L 175.786 135.035 L 185.378 151.911 L 175.065 151.911 L 175.065 187.105 C 175.065 187.899 175.714 188.548 176.508 188.548 L 184.946 188.548 C 185.667 188.548 186.316 187.899 186.316 187.105 L 186.316 163.161 L 191.725 163.161 L 193.24 165.902 L 205.572 187.682 L 205.716 187.899 C 205.933 188.259 206.365 188.548 206.87 188.548 L 216.534 188.548 C 217.328 188.548 217.905 187.899 217.905 187.033 C 217.905 186.817 217.905 186.6 217.76 186.384 L 217.688 186.24 Z  M 196.773 149.242 L 190.355 137.847 L 197.567 137.847 C 205.356 137.847 208.818 141.525 208.818 144.915 C 208.818 147.8 206.221 150.973 200.379 151.766 C 199.73 151.839 199.009 151.911 198.288 151.911 L 196.773 149.242 Z " fill-rule="evenodd" fill="rgb(15,54,101)"/><g><path d=" M 297.83 185.88 C 299.705 185.014 301.508 184.005 303.239 182.779 L 303.239 182.706 L 303.311 182.706 C 303.311 182.634 303.311 182.634 303.383 182.634 C 303.96 182.129 304.032 181.192 303.455 180.615 L 298.046 174.196 C 297.613 173.619 296.748 173.475 296.171 173.836 C 296.171 173.908 296.099 173.908 296.099 173.908 C 287.877 179.461 276.554 178.019 269.991 170.302 C 262.924 161.936 263.933 149.459 272.227 142.391 C 278.79 136.838 288.021 136.261 295.017 140.372 C 295.594 140.66 296.171 140.588 296.604 140.228 L 303.383 134.53 C 303.96 134.025 304.032 133.088 303.455 132.439 L 303.311 132.294 L 303.095 132.15 C 291.772 124.073 275.977 124.361 264.943 133.737 C 251.817 144.843 250.23 164.532 261.337 177.586 C 270.496 188.404 285.497 191.361 297.83 185.88 Z  M 342.112 188.62 C 325.019 188.62 311.1 174.701 311.1 157.609 C 311.1 140.516 325.019 126.597 342.112 126.597 C 359.204 126.597 373.123 140.516 373.123 157.609 C 373.123 174.701 359.204 188.62 342.112 188.62 Z  M 342.112 137.848 C 331.221 137.848 322.351 146.719 322.351 157.609 C 322.351 168.499 331.221 177.297 342.112 177.297 C 353.002 177.297 361.8 168.499 361.8 157.609 C 361.8 146.719 353.002 137.848 342.112 137.848 Z  M 397.211 188.548 C 404.207 188.62 411.203 186.312 416.972 181.553 C 430.098 170.735 432.046 151.19 421.155 137.992 C 415.097 130.564 406.154 126.669 397.211 126.669 L 381.778 126.669 C 380.984 126.669 380.335 127.318 380.335 128.039 L 380.335 186.817 C 380.335 187.827 380.984 188.548 381.778 188.548 L 397.211 188.548 Z  M 412.501 145.132 C 419.425 153.498 418.198 165.975 409.76 172.826 C 406.154 175.855 401.683 177.37 397.211 177.297 L 391.586 177.297 L 391.586 137.92 L 397.211 137.92 C 402.909 137.92 408.606 140.372 412.501 145.132 Z  M 478.419 187.178 C 478.419 187.971 477.77 188.62 477.048 188.62 L 437.599 188.62 C 436.806 188.62 436.156 187.971 436.156 187.178 L 436.156 128.039 C 436.156 127.246 436.806 126.597 437.599 126.597 L 475.606 126.597 C 476.399 126.597 477.048 127.246 477.048 128.039 L 477.048 136.477 C 477.048 137.271 476.399 137.848 475.606 137.848 L 447.407 137.848 L 447.407 151.983 L 474.164 151.983 C 474.957 151.983 475.606 152.56 475.606 153.354 L 475.606 161.792 C 475.606 162.585 474.957 163.234 474.164 163.234 L 447.407 163.234 L 447.407 177.297 L 477.048 177.297 C 477.77 177.297 478.419 177.947 478.419 178.74 L 478.419 187.178 Z " fill-rule="evenodd" fill="rgb(0,204,255)"/><path d=" M 235.646 102.689 L 496.721 102.689 L 496.721 212.311 L 235.646 212.311 L 235.646 102.689 Z  M 244.3 111.343 L 488.067 111.343 L 488.067 203.657 L 244.3 203.657 L 244.3 111.343 Z " fill-rule="evenodd" fill="rgb(0,204,255)"/></g></g></g></svg>